<?xml version="1.0" encoding="utf-8"?>
<!-- Generator: Adobe Illustrator 23.1.0, SVG Export Plug-In . SVG Version: 6.00 Build 0)  -->
<svg version="1.1" id="Layer_1" xmlns="http://www.w3.org/2000/svg" xmlns:xlink="http://www.w3.org/1999/xlink" x="0px" y="0px"
	 viewBox="0 0 517.2 144.3" style="enable-background:new 0 0 517.2 144.3;" xml:space="preserve">
<style type="text/css">
	.st0{fill:#0E0793;}
	.st1{fill:#ECBCFA;}
	.st2{fill:#2E52FF;}
	.st3{fill:#EC6B65;}
</style>
<path class="st0" d="M187.9,112c-20.2,0-35.4-15.9-35.4-37c0-21.6,16-37.2,38.1-37.2c21.6,0,37.2,15.1,37.2,36v34.5
	c0,1.3-1,2.3-2.3,2.3h-8.2c-1.3,0-2.3-1-2.3-2.3v-6c0-1.5-1.2-2.7-2.7-2.7c-0.9,0-1.7,0.4-2.2,1.1C204.9,108,197,112,187.9,112z
	 M189.7,51.4c-1.1,0-2.3,0.1-3.4,0.3c-11.5,1.7-19.5,11.3-19.5,23.3c0,13.4,10,23.6,23.3,23.6c12,0,21.5-8.3,23-20.1
	c0.9-6.8-1.2-13.7-5.8-18.9C202.8,54.3,196.4,51.4,189.7,51.4z"/>
<path class="st0" d="M248,110.5c-0.9,0-1.7-0.8-1.7-1.7V2c0-0.9,0.8-1.7,1.7-1.7h10.7c0.9,0,1.7,0.8,1.7,1.7v106.8
	c0,0.9-0.8,1.7-1.7,1.7H248z"/>
<path class="st0" d="M312.5,112c-20.2,0-35.4-15.9-35.4-37c0-21.6,16-37.2,38.1-37.2c21.6,0,37.2,15.1,37.2,36v34.5
	c0,1.3-1,2.3-2.3,2.3h-8.2c-1.3,0-2.3-1-2.3-2.3v-6c0-1.5-1.2-2.7-2.7-2.7c-0.9,0-1.7,0.4-2.2,1.1C329.5,108,321.7,112,312.5,112z
	 M314.4,51.4c-1.1,0-2.3,0.1-3.4,0.3c-11.5,1.7-19.5,11.3-19.5,23.3c0,13.4,10,23.6,23.3,23.6c12,0,21.5-8.3,23-20.1
	c0.9-6.8-1.2-13.7-5.8-18.9C327.4,54.3,321,51.4,314.4,51.4z"/>
<path class="st0" d="M421,110.5c-0.6,0-1.1-0.3-1.4-0.8l-15-23.1c-0.9-1.2-2.2-1.9-3.7-1.9c-1.5,0-2.8,0.6-3.6,1.7l-15.4,23.2
	c-0.3,0.5-0.8,0.8-1.4,0.8H369c-0.9,0-1.4-0.6-1.5-0.9c-0.1-0.3-0.4-1,0.1-1.8l20.5-28.9c1.1-1.5,2.1-3,3-4.1l1-1.3l-2.3-3.1
	c-0.8-1.1-1.7-2.3-2.6-3.6l-17.9-24.9c-0.5-0.8-0.3-1.5-0.1-1.8c0.1-0.3,0.6-0.9,1.5-0.9h12.5c0.6,0,1.1,0.3,1.4,0.7l13.2,19.6
	c0.9,1.2,2.2,1.8,3.7,1.8c1.6,0,2.9-0.7,3.7-1.9L418,40c0.3-0.5,0.8-0.8,1.4-0.8h11.5c0.9,0,1.4,0.6,1.5,0.9c0.1,0.3,0.4,1-0.1,1.8
	l-17.7,24.9l-1.2,1.8c-0.9,1.3-1.7,2.4-2.5,3.4l-1.1,1.4l1.2,1.3c1.2,1.3,2.4,3,3.9,5.3l19.1,27.8c0.5,0.8,0.2,1.5,0.1,1.7
	c-0.1,0.3-0.6,0.9-1.5,0.9H421z"/>
<g>
	<g>
		<path class="st0" d="M70.7,62.3c-0.9,0-1.7-0.8-1.7-1.7l0-10.7c0-0.5,0.2-0.9,0.5-1.2c0.3-0.3,0.8-0.5,1.2-0.5h37
			c0.8,0,1.4,0.8,1.4,1.7v10.7c0,0.9-0.6,1.7-1.4,1.7H70.7z"/>
		<path class="st1" d="M1.7,62.3c-0.9,0-1.7-0.8-1.7-1.7l0-10.7c0-0.5,0.2-0.9,0.5-1.2s0.8-0.5,1.2-0.5h37c0.8,0,1.4,0.8,1.4,1.7
			v10.7c0,0.9-0.6,1.7-1.4,1.7H1.7z"/>
	</g>
	<g>
		<path class="st2" d="M49.8,110.5c-0.9,0-1.7-0.6-1.7-1.4V72.1c0-0.9,0.8-1.7,1.7-1.7l10.7,0c0.9,0,1.7,0.8,1.7,1.7v37
			c0,0.8-0.8,1.4-1.7,1.4H49.8z"/>
		<path class="st3" d="M49.7,40.1c-0.9,0-1.7-0.8-1.7-1.7v-37C48,0.6,48.7,0,49.7,0h10.7c0.9,0,1.7,0.6,1.7,1.4v36.9
			c0,0.9-0.8,1.7-1.7,1.7L49.7,40.1z"/>
	</g>
	<path class="st0" d="M121.8,110.5c-0.9,0-1.7-0.8-1.7-1.7V2c0-0.9,0.8-1.7,1.7-1.7h10.7c0.9,0,1.7,0.8,1.7,1.7v106.8
		c0,0.9-0.8,1.7-1.7,1.7H121.8z"/>
</g>
<path class="st0" d="M503.1,40.9v35.5c0,8.6-6,16.1-14.4,17.8c-15.1,3-25.9-5.7-25.9-19.6V40.9c0-0.9-0.8-1.7-1.7-1.7h-10.7
	c-0.9,0-1.7,0.8-1.7,1.7v33.7c0,20.8,12.5,33.7,32.6,33.7c5.8,0,11-1.9,15-5.6c0,0,0,0,0,0c0.1-0.1,0.3-0.2,0.4-0.4
	c0.6-0.5,1.2-1.2,1.7-1.9c0.5-0.6,1.2-1,2-1c1.4,0,2.5,1.1,2.5,2.5v8.5c0,12.8-8.6,21.1-21.8,21.1c-7.9,0-14.5-3.5-17.9-9.7
	c-0.3-0.6-0.8-0.9-1.4-0.9h-12.2c-0.8,0-1.3,0.5-1.4,0.8c-0.2,0.3-0.4,0.8-0.2,1.5c5.5,13.6,17.3,21.1,33.1,21.1
	c21.8,0,35.9-13.3,35.9-33.8V40.9c0-0.9-0.8-1.7-1.7-1.7h-10.7C503.9,39.2,503.1,40,503.1,40.9z"/>
</svg>
