<?xml version="1.0" encoding="UTF-8"?><svg viewBox="0 0 196 72" fill="none" xmlns="http://www.w3.org/2000/svg">
							<g clip-path="url(#clip0_3260_1174)">
							<path d="M73.2012 55.2907V0H85.6039V55.2907H73.2012Z" fill="#216947"/>
							<path d="M53.7054 16.035C63.6522 16.035 70.5968 24.2543 70.5968 36.1107C70.5968 47.9672 63.5735 56.1865 53.5479 56.1865C48.577 56.1865 43.3747 53.1399 42.0212 49.0746V71.9951H29.707V16.9061H41.3125V24.2444C43.0203 20.0019 48.0552 16.035 53.7054 16.035ZM51.5152 45.3882C56.0137 45.3882 59.0947 41.5246 59.0947 36.032C59.0947 30.5393 56.0137 26.7595 51.5152 26.7595C47.0168 26.7595 43.7783 30.5393 43.7783 36.032C43.7783 41.5246 46.938 45.3882 51.5152 45.3882Z" fill="#216947"/>
							<path d="M12.6341 27.0744C12.6341 22.6744 22.0986 26.0704 25.8981 29.555V17.418C22.7138 16.4976 19.2489 16.0399 15.9759 16.0399C6.29982 16.0399 0.62506 20.6811 0.62506 26.287C0.62506 36.2239 14.2583 38.2123 14.2583 43.1636C14.2583 47.4061 5.06446 44.5761 0 41.1309V54.39C3.49935 55.5811 7.51548 56.1373 11.2855 56.1373C21.9706 56.1373 27.3205 51.2303 27.3205 45.1766C27.3205 33.576 12.6341 32.0897 12.6341 27.0794V27.0744Z" fill="#216947"/>
							<path d="M141.372 27.0744C141.372 22.6744 150.837 26.0704 154.636 29.555V17.418C151.452 16.4976 147.987 16.0399 144.714 16.0399C135.038 16.0399 129.363 20.6811 129.363 26.287C129.363 36.2239 142.997 38.2123 142.997 43.1636C142.997 47.4061 133.803 44.5761 128.738 41.1309V54.39C132.238 55.5811 136.254 56.1373 140.024 56.1373C150.709 56.1373 156.059 51.2303 156.059 45.1766C156.059 33.576 141.372 32.0897 141.372 27.0794V27.0744Z" fill="#216947"/>
							<path d="M107.737 56.1274C96.5596 56.1274 88.1582 47.5242 88.1582 36.0812C88.1582 24.6382 96.5596 16.035 107.737 16.035C118.914 16.035 127.315 24.6382 127.315 36.0812C127.315 47.5242 118.914 56.1274 107.737 56.1274ZM107.737 45.6786C112.314 45.6786 115.464 41.7363 115.464 36.0763C115.464 30.4163 112.314 26.5577 107.737 26.5577C103.16 26.5577 99.9359 30.5 99.9359 36.0763C99.9359 41.6526 103.16 45.6786 107.737 45.6786Z" fill="#216947"/>
							<path d="M177.507 16.035C188.428 16.035 195.628 23.0583 195.55 33.0051C195.55 34.9 195.235 37.1886 194.836 38.8472H169.435C170.464 43.1094 174.022 45.8705 180.592 45.8705C184.628 45.8705 189.535 44.5269 192.7 42.5582C192.7 42.5582 190.795 53.1891 190.579 54.3458C187.754 55.4089 183.875 56.1323 179.8 56.1323C165.95 56.1323 157.17 48.3216 157.17 35.8499C157.17 24.5644 165.714 16.0399 177.507 16.0399V16.035ZM177.192 26.3756C173.549 26.3756 170.547 28.8217 169.519 32.6901H183.998C183.683 28.8217 181.07 26.3756 177.192 26.3756Z" fill="#216947"/>
							</g>
							<defs>
							<clipPath id="clip0_3260_1174">
							<rect width="195.55" height="72" fill="white"/>
							</clipPath>
							</defs>
						</svg>